<svg width="62" height="24" viewBox="0 0 62 24" fill="none" xmlns="http://www.w3.org/2000/svg">
<g clip-path="url(#clip0_2_198)">
<path d="M42.4006 23.4227C48.2363 23.4227 52.9674 18.8562 52.9674 13.2227C52.9674 7.58919 48.237 3.02271 42.4006 3.02271C36.5641 3.02271 31.833 7.58919 31.833 13.2227C31.833 18.8562 36.5641 23.4227 42.4006 23.4227Z" fill="url(#paint0_linear_2_198)"/>
<path d="M26.483 8.05946C28.7172 8.05946 30.5281 6.25557 30.5281 4.02941C30.5281 1.80454 28.7166 0 26.483 0C24.2495 0 22.4393 1.80389 22.4393 4.02941C22.4393 6.25557 24.2495 8.05946 26.483 8.05946Z" fill="url(#paint1_linear_2_198)"/>
<path d="M57.4049 23.4175C59.7103 23.4175 61.5796 21.6694 61.5796 19.5133C61.5796 17.3572 59.7103 15.6097 57.4049 15.6097C55.0988 15.6097 53.2302 17.3572 53.2302 19.5133C53.2302 21.6694 55.0988 23.4175 57.4049 23.4175Z" fill="#F34C5D"/>
<path d="M21.1344 0.250977C18.4332 0.250977 16.1083 1.75973 14.9976 3.95671C13.6066 3.33218 12.0903 3.01042 10.5561 3.01422C4.7264 3.01422 0 7.5833 0 13.2181C0 18.8529 4.7264 23.422 10.5561 23.422C16.3858 23.422 21.1123 18.8529 21.1123 13.2181L21.1344 0.251625V0.250977Z" fill="url(#paint2_linear_2_198)"/>
<path d="M26.4535 8.05945C25.389 8.05979 24.3682 8.46816 23.6154 9.1948C22.8627 9.92143 22.4397 10.9069 22.4393 11.9345V23.675C26.9084 23.675 30.5274 20.1814 30.5274 15.8672V11.9922C30.5262 10.9495 30.0966 9.94993 29.3328 9.21265C28.5691 8.47538 27.5336 8.06065 26.4535 8.05945Z" fill="url(#paint3_linear_2_198)"/>
</g>
<defs>
<linearGradient id="paint0_linear_2_198" x1="31.8276" y1="13.2234" x2="52.9681" y2="13.2234" gradientUnits="userSpaceOnUse">
<stop stop-color="#6948D0"/>
<stop offset="1" stop-color="#DF4D68"/>
</linearGradient>
<linearGradient id="paint1_linear_2_198" x1="22.4393" y1="4.032" x2="30.5247" y2="4.032" gradientUnits="userSpaceOnUse">
<stop stop-color="#4E67DE"/>
<stop offset="1" stop-color="#6948D0"/>
</linearGradient>
<linearGradient id="paint2_linear_2_198" x1="-0.00537549" y1="11.8378" x2="21.1351" y2="11.8378" gradientUnits="userSpaceOnUse">
<stop stop-color="#18B0F4"/>
<stop offset="1" stop-color="#4E67DE"/>
</linearGradient>
<linearGradient id="paint3_linear_2_198" x1="22.436" y1="15.8692" x2="30.5241" y2="15.8692" gradientUnits="userSpaceOnUse">
<stop stop-color="#4E67DE"/>
<stop offset="1" stop-color="#6948D0"/>
</linearGradient>
<clipPath id="clip0_2_198">
<rect width="61.8182" height="24" fill="white"/>
</clipPath>
</defs>
</svg>
